<?xml version="1.0" standalone="no"?>
<!DOCTYPE svg PUBLIC "-//W3C//DTD SVG 20010904//EN"
 "http://www.w3.org/TR/2001/REC-SVG-20010904/DTD/svg10.dtd">
<svg version="1.0" xmlns="http://www.w3.org/2000/svg"
 width="512.000000pt" height="512.000000pt" viewBox="0 0 512.000000 512.000000"
 preserveAspectRatio="xMidYMid meet">

<g transform="translate(0.000000,512.000000) scale(0.100000,-0.100000)"
fill="#2979AE" stroke="none">
<path d="M2300 4699 c-258 -30 -532 -119 -774 -251 -195 -106 -320 -200 -487
-367 -254 -254 -414 -515 -529 -861 -68 -206 -100 -416 -100 -667 0 -426 118
-823 349 -1173 346 -526 902 -874 1525 -956 168 -22 496 -15 652 15 450 85
828 283 1145 600 317 317 515 695 600 1145 30 156 37 484 15 652 -82 623 -430
1179 -956 1525 -276 182 -592 297 -930 339 -99 12 -402 11 -510 -1z m575 -223
c410 -71 762 -253 1055 -546 293 -294 466 -627 547 -1055 21 -116 24 -471 4
-595 -34 -217 -89 -388 -187 -585 -81 -163 -167 -290 -284 -424 -79 -90 -223
-221 -297 -273 l-45 -30 32 53 c76 129 147 310 175 446 9 43 16 123 16 178 1
166 -43 285 -141 385 -119 123 -301 198 -592 245 l-91 15 -46 -43 c-128 -120
-309 -197 -461 -197 -150 0 -342 83 -480 208 -30 27 -39 27 -176 2 -241 -43
-398 -110 -514 -217 -188 -174 -213 -441 -75 -813 16 -42 73 -153 119 -230
l20 -34 -64 44 c-86 60 -302 276 -373 372 -172 234 -275 451 -340 714 -42 168
-52 258 -52 464 0 326 53 562 190 845 196 405 495 704 900 900 212 103 410
159 665 189 76 9 409 -3 495 -18z"/>
<path d="M2365 3820 c-158 -42 -246 -90 -341 -186 -150 -153 -214 -398 -169
-650 52 -289 200 -538 409 -685 89 -63 162 -90 262 -96 159 -11 284 41 427
176 187 178 311 455 324 727 18 363 -178 632 -521 714 -109 27 -293 26 -391 0z"/>
</g>
</svg>
